<svg xmlns="http://www.w3.org/2000/svg" xmlns:xlink="http://www.w3.org/1999/xlink" width="471" height="730" viewBox="0 0 471 730"><defs><path id="no0da" d="M863 942V244h439v698z"/><path id="no0db" d="M1243.5 765.5v121"/><path id="no0dc" d="M1030.5 885.5h212"/><path id="no0dd" d="M1030.5 865.5h212"/><path id="no0dg" d="M1025 513a4 4 0 0 1 4-4h153a4 4 0 0 1 4 4v9a4 4 0 0 1-4 4h-153a4 4 0 0 1-4-4z"/><path id="no0dh" d="M1023 541a4 4 0 0 1 4-4h222a4 4 0 0 1 4 4v18a4 4 0 0 1-4 4h-222a4 4 0 0 1-4-4z"/><path id="no0di" d="M1025 583a4 4 0 0 1 4-4h153a4 4 0 0 1 4 4v9a4 4 0 0 1-4 4h-153a4 4 0 0 1-4-4z"/><path id="no0dj" d="M1023 611a4 4 0 0 1 4-4h222a4 4 0 0 1 4 4v18a4 4 0 0 1-4 4h-222a4 4 0 0 1-4-4z"/><path id="no0dk" d="M1025 653a4 4 0 0 1 4-4h153a4 4 0 0 1 4 4v9a4 4 0 0 1-4 4h-153a4 4 0 0 1-4-4z"/><path id="no0dl" d="M863 942V244h123v698z"/><path id="no0dm" d="M898 319.5c0-12.43 10.52-22.5 23.5-22.5s23.5 10.07 23.5 22.5-10.52 22.5-23.5 22.5-23.5-10.07-23.5-22.5z"/><path id="no0dn" d="M919.5 335.83l12.34-21.25a.67.67 0 0 0-.66-1l-8.21 1.12 1.96-10.3c.06-.35-.38-.55-.6-.27l-12.13 16.02a.67.67 0 0 0 .6 1.07l9.05-.95-2.97 15.33c-.07.37.43.56.62.23z"/><path id="no0do" d="M916 319.02a.28.28 0 0 1-.26-.43l9.07-14.51c-.14-.11-.35-.12-.48.05l-12.13 16.02a.67.67 0 0 0 .6 1.07l9.05-.95-2.97 15.33c-.04.2.1.35.27.39l5.08-16.1a1.11 1.11 0 0 0-1.15-1.44z"/><path id="no0dp" d="M1025 329a4 4 0 0 1 4-4h222a4 4 0 0 1 4 4v110a4 4 0 0 1-4 4h-222a4 4 0 0 1-4-4z"/><path id="no0dq" d="M1038 443v-23h19v23z"/><path id="no0dr" d="M1068 443v-44h19v44z"/><path id="no0ds" d="M1098 443v-38h19v38z"/><path id="no0dt" d="M1128 443v-59h19v59z"/><path id="no0du" d="M1158 443v-23h19v23z"/><path id="no0dv" d="M1188 443v-38h19v38z"/><path id="no0dw" d="M1218 443v-23h19v23z"/><path id="no0dx" d="M1034 393.7c7.24-.96 15.2.36 21.71-2.9 2.44-1.22 12.96-28.6 27.4-21.05 4.79 2.5 7.24 8.8 12.41 10.39 7.24 2.23 16.33 4.45 22.73.43 15.38-9.64 3.3-27.82 24.74-24.07 18.54 3.25 9.44 30.53 22.62 35.69 12.65 4.94 22.1-18.34 41.9-15.68 8.5 1.14 5.52 12.08 13.93 15.55 5.92 2.44 12.37 3.3 18.56 4.94"/><path id="no0dy" d="M1023 913V755h230v158z"/><path id="no0dz" d="M1230.25 768.5v118"/><path id="no0dA" d="M1203.25 768.5v118"/><path id="no0dB" d="M1173.25 768.5v118"/><path id="no0dC" d="M1136.25 768.5v118"/><path id="no0dD" d="M1100.25 768.5v118"/><path id="no0dE" d="M1066.25 768.5v118"/><path id="no0dF" d="M1035.25 768.5v118"/><path id="no0dG" d="M1243.5 768.25h4"/><path id="no0dH" d="M1243.5 778.25h4"/><path id="no0dI" d="M1243.5 788.25h4"/><path id="no0dJ" d="M1243.5 798.25h4"/><path id="no0dK" d="M1243.5 808.25h4"/><path id="no0dL" d="M1243.5 818.25h4"/><path id="no0dM" d="M1243.5 828.25h4"/><path id="no0dN" d="M1243.5 838.25h4"/><path id="no0dO" d="M1243.5 848.25h4"/><path id="no0dP" d="M1243.5 858.25h4"/><path id="no0dQ" d="M1243.5 868.25h4"/><path id="no0dR" d="M1243.5 878.25h4"/><path id="no0dS" d="M1243.25 765.5v121"/><path id="no0dT" d="M1030.5 845.5h212"/><path id="no0dU" d="M1030.5 825.5h212"/><path id="no0dV" d="M1030.5 805.5h212"/><path id="no0dW" d="M1030.5 785.5h212"/><path id="no0dX" d="M1172 885.5a1.5 1.5 0 1 1 3 0 1.5 1.5 0 0 1-3 0z"/><path id="no0dY" d="M1201 885.5a1.5 1.5 0 1 1 3 0 1.5 1.5 0 0 1-3 0z"/><path id="no0dZ" d="M1065 885.5a1.5 1.5 0 1 1 3 0 1.5 1.5 0 0 1-3 0z"/><path id="no0daa" d="M1034 885.5a1.5 1.5 0 1 1 3 0 1.5 1.5 0 0 1-3 0z"/><path id="no0dab" d="M1099 885.5a1.5 1.5 0 1 1 3 0 1.5 1.5 0 0 1-3 0z"/><path id="no0dac" d="M1135 885.5a1.5 1.5 0 1 1 3 0 1.5 1.5 0 0 1-3 0z"/><path id="no0dad" d="M1229 885.5a1.5 1.5 0 1 1 3 0 1.5 1.5 0 0 1-3 0z"/><path id="no0dae" d="M1034.42 880.47c.95-1.94.8-5.19 2.86-5.81.67-.2 1.93 9.45 5.97 3.86 1-1.37-1.2-3.9 0-5.08 9.08-8.93 3.9.7 7.07 1.19 4.83.74 17.9-18.1 24.93-3.25.55 1.17-.62 5.03 0 3.89l1.7.73c5.73-10.63.6-1.25 11.35-6.33 0 0 5.74-11.22 7-11.9 9.34-5.01-.71 5.98 7 3.66 1.45-.44.92-5.29 1.91-4.14 7.3 8.4-.66 14.59 13.36 16.22 4.1.47-1.15-6.29 3.62-3.65.45.24.3 1.94.49 1.46.33-.83-.79-2.26 0-2.68 1.49-.79 3.83 1.17 5.05 0 1.16-1.11-.6-3.34 0-4.84 1.08-2.67 8.82-7.35 10.86-8.51.64-.37-.49-2.73 0-2.2 5.66 6.17-1.72 13.45 8.25 16.52 11.35 3.5 4.4-8.11 8.22-10.92 47.91-35.28-23.03 25.86 7.3-6.08.89-.94 2.87.8 3.89 0 2.34-1.85 7.47-13.62 8.61-14.06 6.31-2.42 8.3 12.61 12.27 15.33 3.09 2.12 8.1-5.6 9.67-7.45.47-.55 1.8-.62 2.17 0 7.46 12.58-17.47-11.37 4.29 10.67 1.25 1.27 4.03 3.8 4.84 2.22l.73 2.2c.54-1.08-1.16-3.26 0-3.63 2.18-.7 4.46 1.89 6.72 1.5.88-.16-.6-2.02 0-2.68 1.1-1.23 4.37-2.72 5.33-3.9.76-.94-.8-2.71 0-3.62 12.61-14.43-9.3 24.22 3.16-5.08.28-.66 1.95-.69 2.16 0l4.35 5.6c3.26 10.78-.15 20.92 10.35 22.51"/><path id="no0daf" d="M1023 681a4 4 0 0 1 4-4h222a4 4 0 0 1 4 4v51a4 4 0 0 1-4 4h-222a4 4 0 0 1-4-4z"/><path id="no0dag" d="M1038 720.12c0-10.77 3.56-8.12 10.59-11.61 1.37-.69 4.93-5.72 6.47-5.85 26.5-2.14 23.58 17.03 45.78 14.54 11.8-1.33 10.4-13.9 16.99-18.11 8.38-5.36 14.6-4.14 25.01-3.5.12 0 21.93 21 28.69 22.13 11.97 2 11.34-8.32 22.14-9.87 8.3-1.19 21.64-.54 29.28 4.6 1.52 1.03 1.26 3.8 2.87 4.68 14.61 7.96 10.24-1.71 13.18 6.87"/><path id="no0dah" d="M1095 717.5a2.5 2.5 0 1 1 5 0 2.5 2.5 0 0 1-5 0z"/><path id="no0dai" d="M1141 696.5a2.5 2.5 0 1 1 5 0 2.5 2.5 0 0 1-5 0z"/><path id="no0daj" d="M1171 717.5a2.5 2.5 0 1 1 5 0 2.5 2.5 0 0 1-5 0z"/><path id="no0dak" d="M1221 713.5a2.5 2.5 0 1 1 5 0 2.5 2.5 0 0 1-5 0z"/><path id="no0dal" d="M1051 703.5a2.5 2.5 0 1 1 5 0 2.5 2.5 0 0 1-5 0z"/><mask id="no0df" width="2" height="2" x="-1" y="-1"><path fill="#fff" d="M862 243h441v700H862z"/><use xlink:href="#no0da"/></mask><filter id="no0de" width="491" height="752" x="837" y="233" filterUnits="userSpaceOnUse"><feOffset dy="2" in="SourceGraphic" result="FeOffset1675Out"/><feGaussianBlur in="FeOffset1675Out" result="FeGaussianBlur1676Out" stdDeviation="6 6"/></filter></defs><g><g transform="translate(-847 -230)"><use fill="#fff" fill-opacity="0" stroke="#979797" stroke-linecap="square" stroke-miterlimit="50" stroke-opacity=".17" stroke-width=".5" xlink:href="#no0db"/></g><g transform="translate(-847 -230)"><use fill="#fff" fill-opacity="0" stroke="#979797" stroke-linecap="square" stroke-miterlimit="50" stroke-opacity=".28" stroke-width=".5" xlink:href="#no0dc"/></g><g transform="translate(-847 -230)"><use fill="#fff" fill-opacity="0" stroke="#979797" stroke-linecap="square" stroke-miterlimit="50" stroke-opacity=".28" stroke-width=".5" xlink:href="#no0dd"/></g><g transform="translate(-847 -230)"><g fill="#4a4a4a" font-family="'Averta Demo','AvertaDemo-Regular'" font-size="9" font-style="none" font-weight="400" style="font-kerning:normal"><text dominant-baseline="text-before-edge" font-family="Helvetica, Arial, sans-serif" transform="translate(880 443)"><tspan>Dashboard</tspan></text></g></g><g transform="translate(-847 -230)"><g fill="#4a4a4a" font-family="'Averta Demo','AvertaDemo-Regular'" font-size="9" font-style="none" font-weight="400" style="font-kerning:normal"><text dominant-baseline="text-before-edge" font-family="Helvetica, Arial, sans-serif" transform="translate(880 443)"><tspan>Dashboard</tspan></text></g></g><g transform="translate(-847 -230)"><g filter="url(#no0de)"><use fill="none" stroke="#000" stroke-opacity=".15" stroke-width="2" mask="url(&quot;#no0df&quot;)" xlink:href="#no0da"/><use fill-opacity=".15" xlink:href="#no0da"/></g><use fill="#fff" xlink:href="#no0da"/></g><g opacity=".6" transform="translate(-847 -230)"><use fill="#f6f6f6" xlink:href="#no0dg"/></g><g opacity=".6" transform="translate(-847 -230)"><use fill="#f6f6f6" xlink:href="#no0dh"/></g><g opacity=".6" transform="translate(-847 -230)"><use fill="#f6f6f6" xlink:href="#no0dg"/></g><g opacity=".6" transform="translate(-847 -230)"><use fill="#f6f6f6" xlink:href="#no0dh"/></g><g opacity=".6" transform="translate(-847 -230)"><use fill="#f6f6f6" xlink:href="#no0di"/></g><g opacity=".6" transform="translate(-847 -230)"><use fill="#f6f6f6" xlink:href="#no0dj"/></g><g transform="translate(-847 -230)"><use fill="#f6f6f6" xlink:href="#no0dk"/></g><g opacity=".45" transform="translate(-847 -230)"><g fill="#4a4a4a" font-family="'Avenir','Avenir-Heavy'" font-size="9" style="font-kerning:normal"><text dominant-baseline="text-before-edge" font-family="Helvetica, Arial, sans-serif" transform="translate(1029 303)"><tspan>Overview</tspan></text></g></g><g transform="translate(-847 -230)"><use fill="#f9f9f9" xlink:href="#no0dl"/></g><g transform="translate(-847 -230)"><use fill="#fff" xlink:href="#no0dm"/></g><g transform="translate(-847 -230)"><use fill="#ffdc64" xlink:href="#no0dn"/></g><g transform="translate(-847 -230)"><use fill="#ffc850" xlink:href="#no0do"/></g><g opacity=".45" transform="translate(-847 -230)"><g fill="#4a4a4a" font-family="'Avenir','Avenir-Heavy'" font-size="9" style="font-kerning:normal"><text dominant-baseline="text-before-edge" font-family="Helvetica, Arial, sans-serif" transform="translate(894 369)"><tspan>Schezenrun</tspan></text></g></g><g opacity=".33" transform="translate(-847 -230)"><g fill="#4a4a4a" font-family="'Avenir','Avenir-Heavy'" font-size="9" style="font-kerning:normal"><text dominant-baseline="text-before-edge" font-family="Helvetica, Arial, sans-serif" transform="translate(1029 478)"><tspan>Reports</tspan></text></g></g><g transform="translate(-847 -230)"><use fill="#fdfdfd" xlink:href="#no0dp"/></g><g opacity=".31" transform="translate(-847 -230)"><use fill="#3f46ad" xlink:href="#no0dq"/></g><g opacity=".31" transform="translate(-847 -230)"><use fill="#3f46ad" xlink:href="#no0dr"/></g><g opacity=".31" transform="translate(-847 -230)"><use fill="#3f46ad" xlink:href="#no0ds"/></g><g opacity=".31" transform="translate(-847 -230)"><use fill="#3f46ad" xlink:href="#no0dt"/></g><g opacity=".31" transform="translate(-847 -230)"><use fill="#3f46ad" xlink:href="#no0du"/></g><g opacity=".31" transform="translate(-847 -230)"><use fill="#3f46ad" xlink:href="#no0dv"/></g><g opacity=".31" transform="translate(-847 -230)"><use fill="#3f46ad" xlink:href="#no0dw"/></g><g opacity=".31" transform="translate(-847 -230)"><use fill="#fff" fill-opacity="0" stroke="#f00b41" stroke-miterlimit="50" xlink:href="#no0dx"/></g><g transform="translate(-847 -230)"><use fill="#f6f6f6" xlink:href="#no0dy"/></g><g opacity=".85" transform="translate(-847 -230)"><g fill="#c0316e" font-family="'Avenir','Avenir-Light'" font-size="9" font-style="none" font-weight="lighter" style="font-kerning:normal"><text dominant-baseline="text-before-edge" font-family="Helvetica, Arial, sans-serif" transform="translate(1032 893)"><tspan>Mon</tspan></text></g></g><g opacity=".85" transform="translate(-847 -230)"><g fill="#c84f83" font-family="'Avenir','Avenir-Light'" font-size="9" font-style="none" font-weight="lighter" style="font-kerning:normal"><text dominant-baseline="text-before-edge" font-family="Helvetica, Arial, sans-serif" transform="translate(1066 893)"><tspan>Tues</tspan></text></g></g><g opacity=".85" transform="translate(-847 -230)"><g fill="#c0316e" font-family="'Avenir','Avenir-Light'" font-size="9" font-style="none" font-weight="lighter" style="font-kerning:normal"><text dominant-baseline="text-before-edge" font-family="Helvetica, Arial, sans-serif" transform="translate(1100 893)"><tspan>Wed</tspan></text></g></g><g opacity=".85" transform="translate(-847 -230)"><g fill="#b60d56" font-family="'Avenir','Avenir-Light'" font-size="9" font-style="none" font-weight="lighter" style="font-kerning:normal"><text dominant-baseline="text-before-edge" font-family="Helvetica, Arial, sans-serif" transform="translate(1135 893)"><tspan>Thurs</tspan></text></g></g><g opacity=".85" transform="translate(-847 -230)"><g fill="#b01a5b" font-family="'Avenir','Avenir-Light'" font-size="9" font-style="none" font-weight="lighter" style="font-kerning:normal"><text dominant-baseline="text-before-edge" font-family="Helvetica, Arial, sans-serif" transform="translate(1173 893)"><tspan>Fri</tspan></text></g></g><g opacity=".85" transform="translate(-847 -230)"><g fill="#b01a5b" font-family="'Avenir','Avenir-Light'" font-size="9" font-style="none" font-weight="lighter" style="font-kerning:normal"><text dominant-baseline="text-before-edge" font-family="Helvetica, Arial, sans-serif" transform="translate(1200 893)"><tspan>Sat</tspan></text></g></g><g opacity=".85" transform="translate(-847 -230)"><g fill="#ba3770" font-family="'Avenir','Avenir-Light'" font-size="9" font-style="none" font-weight="lighter" style="font-kerning:normal"><text dominant-baseline="text-before-edge" font-family="Helvetica, Arial, sans-serif" transform="translate(1229 893)"><tspan>Sun</tspan></text></g></g><g opacity=".85" transform="translate(-847 -230)"><use fill="#fff" fill-opacity="0" stroke="#979797" stroke-linecap="square" stroke-miterlimit="50" stroke-opacity=".17" stroke-width=".5" xlink:href="#no0dz"/></g><g opacity=".85" transform="translate(-847 -230)"><use fill="#fff" fill-opacity="0" stroke="#979797" stroke-linecap="square" stroke-miterlimit="50" stroke-opacity=".17" stroke-width=".5" xlink:href="#no0dA"/></g><g opacity=".85" transform="translate(-847 -230)"><use fill="#fff" fill-opacity="0" stroke="#979797" stroke-linecap="square" stroke-miterlimit="50" stroke-opacity=".17" stroke-width=".5" xlink:href="#no0dB"/></g><g opacity=".85" transform="translate(-847 -230)"><use fill="#fff" fill-opacity="0" stroke="#979797" stroke-linecap="square" stroke-miterlimit="50" stroke-opacity=".17" stroke-width=".5" xlink:href="#no0dC"/></g><g opacity=".85" transform="translate(-847 -230)"><use fill="#fff" fill-opacity="0" stroke="#979797" stroke-linecap="square" stroke-miterlimit="50" stroke-opacity=".17" stroke-width=".5" xlink:href="#no0dD"/></g><g opacity=".85" transform="translate(-847 -230)"><use fill="#fff" fill-opacity="0" stroke="#979797" stroke-linecap="square" stroke-miterlimit="50" stroke-opacity=".17" stroke-width=".5" xlink:href="#no0dE"/></g><g opacity=".85" transform="translate(-847 -230)"><use fill="#fff" fill-opacity="0" stroke="#979797" stroke-linecap="square" stroke-miterlimit="50" stroke-opacity=".17" stroke-width=".5" xlink:href="#no0dF"/></g><g opacity=".85" transform="translate(-847 -230)"><use fill="#fff" fill-opacity="0" stroke="#979797" stroke-linecap="square" stroke-miterlimit="50" stroke-width=".5" xlink:href="#no0dG"/></g><g opacity=".85" transform="translate(-847 -230)"><use fill="#fff" fill-opacity="0" stroke="#979797" stroke-linecap="square" stroke-miterlimit="50" stroke-width=".5" xlink:href="#no0dH"/></g><g opacity=".85" transform="translate(-847 -230)"><use fill="#fff" fill-opacity="0" stroke="#979797" stroke-linecap="square" stroke-miterlimit="50" stroke-width=".5" xlink:href="#no0dI"/></g><g opacity=".85" transform="translate(-847 -230)"><use fill="#fff" fill-opacity="0" stroke="#979797" stroke-linecap="square" stroke-miterlimit="50" stroke-width=".5" xlink:href="#no0dJ"/></g><g opacity=".85" transform="translate(-847 -230)"><use fill="#fff" fill-opacity="0" stroke="#979797" stroke-linecap="square" stroke-miterlimit="50" stroke-width=".5" xlink:href="#no0dK"/></g><g opacity=".85" transform="translate(-847 -230)"><use fill="#fff" fill-opacity="0" stroke="#979797" stroke-linecap="square" stroke-miterlimit="50" stroke-width=".5" xlink:href="#no0dL"/></g><g opacity=".85" transform="translate(-847 -230)"><use fill="#fff" fill-opacity="0" stroke="#979797" stroke-linecap="square" stroke-miterlimit="50" stroke-width=".5" xlink:href="#no0dM"/></g><g opacity=".85" transform="translate(-847 -230)"><use fill="#fff" fill-opacity="0" stroke="#979797" stroke-linecap="square" stroke-miterlimit="50" stroke-width=".5" xlink:href="#no0dN"/></g><g opacity=".85" transform="translate(-847 -230)"><use fill="#fff" fill-opacity="0" stroke="#979797" stroke-linecap="square" stroke-miterlimit="50" stroke-width=".5" xlink:href="#no0dO"/></g><g opacity=".85" transform="translate(-847 -230)"><use fill="#fff" fill-opacity="0" stroke="#979797" stroke-linecap="square" stroke-miterlimit="50" stroke-width=".5" xlink:href="#no0dP"/></g><g opacity=".85" transform="translate(-847 -230)"><use fill="#fff" fill-opacity="0" stroke="#979797" stroke-linecap="square" stroke-miterlimit="50" stroke-width=".5" xlink:href="#no0dQ"/></g><g opacity=".85" transform="translate(-847 -230)"><use fill="#fff" fill-opacity="0" stroke="#979797" stroke-linecap="square" stroke-miterlimit="50" stroke-width=".5" xlink:href="#no0dR"/></g><g opacity=".85" transform="translate(-847 -230)"><use fill="#fff" fill-opacity="0" stroke="#979797" stroke-linecap="square" stroke-miterlimit="50" stroke-opacity=".17" stroke-width=".5" xlink:href="#no0dS"/></g><g opacity=".85" transform="translate(-847 -230)"><use fill="#fff" fill-opacity="0" stroke="#979797" stroke-linecap="square" stroke-miterlimit="50" stroke-opacity=".28" stroke-width=".5" xlink:href="#no0dT"/></g><g opacity=".85" transform="translate(-847 -230)"><use fill="#fff" fill-opacity="0" stroke="#979797" stroke-linecap="square" stroke-miterlimit="50" stroke-opacity=".28" stroke-width=".5" xlink:href="#no0dU"/></g><g opacity=".85" transform="translate(-847 -230)"><use fill="#fff" fill-opacity="0" stroke="#979797" stroke-linecap="square" stroke-miterlimit="50" stroke-opacity=".28" stroke-width=".5" xlink:href="#no0dV"/></g><g opacity=".85" transform="translate(-847 -230)"><use fill="#fff" fill-opacity="0" stroke="#979797" stroke-linecap="square" stroke-miterlimit="50" stroke-opacity=".28" stroke-width=".5" xlink:href="#no0dW"/></g><g opacity=".85" transform="translate(-847 -230)"><use fill="#d8d8d8" xlink:href="#no0dX"/></g><g opacity=".85" transform="translate(-847 -230)"><use fill="#d8d8d8" xlink:href="#no0dY"/></g><g opacity=".85" transform="translate(-847 -230)"><use fill="#d8d8d8" xlink:href="#no0dZ"/></g><g opacity=".85" transform="translate(-847 -230)"><use fill="#d8d8d8" xlink:href="#no0daa"/></g><g opacity=".85" transform="translate(-847 -230)"><use fill="#d8d8d8" xlink:href="#no0dab"/></g><g opacity=".85" transform="translate(-847 -230)"><use fill="#d8d8d8" xlink:href="#no0dac"/></g><g opacity=".85" transform="translate(-847 -230)"><use fill="#d8d8d8" xlink:href="#no0dad"/></g><g opacity=".85" transform="translate(-847 -230)"><use fill="#fff" fill-opacity="0" stroke="#979797" stroke-linecap="square" stroke-miterlimit="50" stroke-opacity=".28" stroke-width=".5" xlink:href="#no0dd"/></g><g opacity=".85" transform="translate(-847 -230)"><use fill="#fff" fill-opacity="0" stroke="#3f46ad" stroke-miterlimit="50" xlink:href="#no0dae"/></g><g transform="translate(-847 -230)"><use fill="#f6f6f6" xlink:href="#no0daf"/></g><g transform="translate(-847 -230)"><use fill="#fff" fill-opacity="0" stroke="#50e3c2" stroke-miterlimit="50" xlink:href="#no0dag"/></g><g transform="translate(-847 -230)"><use fill="#3f46ad" xlink:href="#no0dah"/><use fill="#fff" fill-opacity="0" stroke="#979797" stroke-miterlimit="50" xlink:href="#no0dah"/></g><g transform="translate(-847 -230)"><use fill="#3f46ad" xlink:href="#no0dai"/></g><g transform="translate(-847 -230)"><use fill="#3f46ad" xlink:href="#no0daj"/></g><g transform="translate(-847 -230)"><use fill="#3f46ad" xlink:href="#no0dak"/></g><g transform="translate(-847 -230)"><use fill="#3f46ad" xlink:href="#no0dah"/></g><g transform="translate(-847 -230)"><use fill="#3f46ad" xlink:href="#no0dal"/></g></g></svg>