<svg xmlns="http://www.w3.org/2000/svg" xmlns:xlink="http://www.w3.org/1999/xlink" width="20" height="19" viewBox="0 0 20 19"><defs><path id="4hjsa" d="M81 257.72V259H61v-1.46c0-1.15.6-2.2 1.57-2.74l2.97-1.68a.92.92 0 0 0 .46-.8v-1.15a7.35 7.35 0 0 1-1.17-2.5 1.4 1.4 0 0 1-.5-1.07v-1.38c0-.33.12-.66.34-.9v-1.85c-.02-.19-.1-1.32.7-2.25.68-.81 1.79-1.22 3.3-1.22 1.5 0 2.61.41 3.3 1.22.23.28.39.57.5.85a4.54 4.54 0 0 1 1.6-.3c3.94.04 4.07 4.17 4.07 4.21.04 2.43 1.5 4.83 2.12 5.75.17.25.22.57.14.87a1 1 0 0 1-.56.66c-.72.32-1.61.23-1.65.23H76c.08.13.16.23.24.26l3.26 1.47a2.8 2.8 0 0 1 1.49 2.5zm-5.33-.12c0-.92-.5-1.75-1.3-2.17l-3.18-1.65a1.56 1.56 0 0 1-.4-.3h-.01l-.08-.09a1.58 1.58 0 0 1-.16-.25l-.02-.02a1.63 1.63 0 0 1-.15-.46l-.02-.05a1.68 1.68 0 0 1-.02-.26v-1.43l.09-.1c.08-.1.18-.22.28-.37.4-.59.72-1.25.94-1.97l.05-.17.17-.05c.28-.1.47-.36.47-.66v-1.38a.7.7 0 0 0-.22-.51l-.11-.1v-2.2-.13-.01-.08-.02-.1-.01a2.65 2.65 0 0 0-.03-.26l-.01-.07-.02-.07c-.06-.31-.2-.67-.48-1-.55-.64-1.5-.97-2.8-.97-1.3 0-2.24.33-2.8.98-.64.77-.53 1.73-.53 1.74v2.2l-.1.1a.7.7 0 0 0-.23.5v1.39c0 .23.12.45.3.58l.12.08.03.13a6.6 6.6 0 0 0 1.14 2.44l.08.1v1.39c0 .58-.31 1.12-.81 1.4l-2.97 1.69a2.44 2.44 0 0 0-1.22 2.13v.77h14zm4.66.12c0-.8-.42-1.52-1.11-1.88l-3.25-1.46c-.3-.16-.5-.45-.6-.66a.65.65 0 0 1 .03-.62.6.6 0 0 1 .53-.3h2.29c.04 0 .8.07 1.36-.18a.32.32 0 0 0 .18-.21c.02-.1 0-.2-.05-.29-.66-.97-2.19-3.5-2.24-6.12 0-.15-.12-3.5-3.4-3.53-.52 0-1 .09-1.43.26.05.37.04.66.03.74v1.84c.21.25.33.58.33.9v1.39c0 .54-.3 1.03-.78 1.25a8.02 8.02 0 0 1-1.22 2.33v1.17l.03.24.05.12.04.09h.74c.24 0 .46.15.54.4.05.15.04.3-.01.43l2.28 1.19a3.11 3.11 0 0 1 1.66 2.78v.7h4z"/></defs><g><g transform="translate(-61 -240)"><use fill="#4a4a4a" xlink:href="#4hjsa"/></g></g></svg>