<svg xmlns="http://www.w3.org/2000/svg" xmlns:xlink="http://www.w3.org/1999/xlink" width="20" height="14" viewBox="0 0 20 14"><defs><path id="z28ta" d="M74.29 185.1l-5.02 4.42-.02.02a.86.86 0 1 0 1.23 1.2l4.41-5.03a.43.43 0 0 0-.6-.6z"/><path id="z28tb" d="M80 190.5c0 1.09-.16 2.16-.48 3.2a.42.42 0 0 1-.4.3H60.88a.42.42 0 0 1-.4-.3 10.97 10.97 0 0 1-.47-3.2c0-5.79 4.49-10.5 10-10.5s10 4.71 10 10.5zm-2.5 0c0-.24.19-.44.42-.44h1.23a9.92 9.92 0 0 0-1.02-3.98l-1.07.64a.4.4 0 0 1-.2.06.41.41 0 0 1-.36-.22.45.45 0 0 1 .15-.6l1.06-.64a9.47 9.47 0 0 0-2.78-2.92l-.61 1.12a.41.41 0 0 1-.36.22.4.4 0 0 1-.21-.06.45.45 0 0 1-.15-.6l.61-1.12a8.76 8.76 0 0 0-3.8-1.06v1.29c0 .24-.18.43-.41.43a.43.43 0 0 1-.42-.43v-1.3a8.76 8.76 0 0 0-3.8 1.07l.62 1.12c.12.21.05.48-.15.6a.4.4 0 0 1-.2.06.41.41 0 0 1-.37-.22l-.61-1.12a9.47 9.47 0 0 0-2.78 2.92l1.06.64c.2.13.27.4.15.6a.41.41 0 0 1-.36.22.4.4 0 0 1-.2-.06l-1.07-.64a9.92 9.92 0 0 0-1.02 3.98h1.23c.23 0 .42.2.42.44s-.19.44-.42.44h-1.22c.03.74.13 1.47.32 2.18h17.64c.2-.7.29-1.44.32-2.18h-1.22a.43.43 0 0 1-.42-.44z"/></defs><g><g transform="translate(-60 -180)"><use fill="#4a4a4a" xlink:href="#z28ta"/></g><g transform="translate(-60 -180)"><use fill="#4a4a4a" xlink:href="#z28tb"/></g></g></svg>