<svg xmlns="http://www.w3.org/2000/svg" xmlns:xlink="http://www.w3.org/1999/xlink" width="20" height="18" viewBox="0 0 20 18"><defs><path id="s0sua" d="M81 378.62l-.23 5.6a.3.3 0 1 1-.59-.03l.23-5.59c0-.14-.01-.28-.05-.4l-.89.88c-.25.26-.4.6-.4.96v4.16a.3.3 0 0 1-.58 0v-4.16c0-.52.2-1 .57-1.37l1.01-1.02a1.35 1.35 0 0 0-.52-.36l-1.48-.58-1.14 1.7a.84.84 0 0 1-1.1.27l.23 5.5a.3.3 0 0 1-.58.03l-.23-5.11h-.6l-.23 5.11a.3.3 0 0 1-.59-.02l.25-5.51a.84.84 0 0 1-1.12-.27l-1.13-1.7-1.48.58c-.1.03-.19.08-.27.14a.3.3 0 0 1-.4-.08.3.3 0 0 1 .07-.4c.12-.09.25-.16.39-.21l1.6-.62.8-.8a.3.3 0 0 1 .2-.1v-.64c-.39-.41-.66-.93-.77-1.51-.07 0-.14 0-.2-.02a.87.87 0 0 1-.68-.86v-.2c0-.35.2-.65.48-.8-.09-.34-.2-.96-.2-1.7 0-.84.38-1.25.71-1.45.23-.14.47-.18.6-.2.25-.2 1.04-.77 2.25-.83 1.32-.07 2.36.28 3 1.02.66.77.88 1.92.62 3.33.16.15.25.38.25.62v.21c0 .42-.28.78-.67.86a.84.84 0 0 1-.2.02c-.11.58-.39 1.1-.77 1.5v.66a.3.3 0 0 1 .19.08l.81.81 1.6.62c.77.3 1.27 1.06 1.24 1.88zm-6.05-3.67c1.18 0 2.19-.84 2.4-2a.57.57 0 0 1 .6-.47H78c.12-.03.2-.15.2-.29v-.21c0-.13-.08-.25-.2-.28-.03 0-.12 0-.22.02a.48.48 0 0 1-.55-.29l-.22-.5c-.76.15-3.06.46-4.22-.98a.3.3 0 1 1 .46-.37c1.13 1.41 3.84.73 3.86.72a.3.3 0 0 1 .35.17l.27.66c.09-.01.18-.02.25-.01.2-1.17.02-2.1-.5-2.7-.52-.6-1.4-.89-2.53-.83a3.3 3.3 0 0 0-1.96.75.3.3 0 0 1-.2.08s-.22 0-.44.14c-.27.17-.4.49-.4.93 0 .75.13 1.37.2 1.66.12.03.23.09.32.17l.23-.25a.3.3 0 1 1 .47.35c-.14.18-.3.34-.48.47a.41.41 0 0 1-.56-.09.25.25 0 0 0-.25-.1c-.12.02-.21.15-.21.28v.21c0 .14.09.26.2.29h.07c.28-.02.54.19.6.47.2 1.16 1.22 2 2.4 2zm-.43 2.5l-1.75-1.53-.46.46 1.14 1.7c.06.1.14.12.19.12.04 0 .13 0 .2-.07zm.7 1.06l-.01-.4-.26-.26-.26.26-.02.4zm1.35-2.89v-.56a3.02 3.02 0 0 1-3.25 0v.56l1.63 1.43zm1.02.76l-.46-.46-1.75 1.53.67.68c.08.07.16.07.2.07.05 0 .14-.02.2-.11z"/><path id="s0sub" d="M71.45 380.13l-.17 4.08a.3.3 0 1 1-.59-.02l.18-4.08c0-.27-.06-.52-.19-.74l-.77.92c-.24.3-.38.66-.38 1.04v2.87a.3.3 0 0 1-.58 0v-2.87c0-.51.18-1.02.51-1.41l.82-.98a1.33 1.33 0 0 0-.22-.13l-1.25-.54-.88 1.43a.57.57 0 0 1-.85.13l-.56-.47v4.84a.3.3 0 0 1-.59 0v-4.84l-.55.47a.57.57 0 0 1-.86-.13l-.88-1.43-1.24.54-.23.13.82.98c.33.4.51.9.51 1.41v2.87a.3.3 0 0 1-.58 0v-2.87c0-.38-.14-.75-.38-1.04l-.77-.92c-.13.22-.2.47-.18.74l.17 4.08a.3.3 0 1 1-.59.02l-.17-4.08c-.03-.8.43-1.54 1.16-1.86l1.43-.62.78-.78a.3.3 0 0 1 .2-.09v-.46a3.03 3.03 0 0 1-1.32-1.97c-.08 0-.16 0-.23-.02a.87.87 0 0 1-.65-.85v-.21c0-.3.15-.57.38-.73a3.42 3.42 0 0 1 1.54-3.7 1.9 1.9 0 0 1 1.94-1.84 1.9 1.9 0 0 1 1.93 1.83 3.42 3.42 0 0 1 1.55 3.71c.23.16.37.43.37.72v.22c0 .4-.27.76-.64.85a.84.84 0 0 1-.24.02 3.03 3.03 0 0 1-1.31 1.97v.46a.3.3 0 0 1 .19.09l.78.78 1.43.62c.73.32 1.2 1.07 1.16 1.86zm-6.53-11.6a3.69 3.69 0 0 1 2.61 0 1.34 1.34 0 0 0-1.3-.94c-.63 0-1.15.4-1.3.93zm1.3 7.7c1.19 0 2.2-.84 2.41-2a.57.57 0 0 1 .6-.46l.07-.01c.11-.03.2-.15.2-.28v-.22c0-.13-.1-.25-.21-.27a.65.65 0 0 0-.29.04.3.3 0 0 1-.33-.03l-.35-.28c-.28.01-1 .03-1.8-.14a4.19 4.19 0 0 1-2.44-1.34.3.3 0 1 1 .45-.38c1.13 1.35 3.34 1.3 3.77 1.27.14 0 .28.04.39.13l.22.18.23-.04c.05-.22.08-.44.08-.67a2.93 2.93 0 0 0-3-2.86c-1.65 0-2.99 1.28-2.99 2.86 0 .23.03.45.09.67.16.02.31.1.44.2.08-.07.15-.15.22-.24a.3.3 0 0 1 .47.35c-.13.18-.3.33-.47.46a.41.41 0 0 1-.57-.09.25.25 0 0 0-.25-.1c-.11.03-.2.15-.2.29v.2c0 .14.08.26.2.29h.07c.28-.01.54.2.6.47.2 1.16 1.22 2 2.4 2zm-.42 2.47l-1.22-1.21-.45.45.88 1.43zm1.5-1.47v-.6a3.02 3.02 0 0 1-2.15 0v.6l1.08 1.08zm1.02.71l-.45-.45-1.21 1.21.78.67z"/></defs><g><g transform="translate(-61 -367)"><use fill="#4a4a4a" xlink:href="#s0sua"/></g><g transform="translate(-61 -367)"><use fill="#4a4a4a" xlink:href="#s0sub"/></g></g></svg>