<svg xmlns="http://www.w3.org/2000/svg" xmlns:xlink="http://www.w3.org/1999/xlink" width="12" height="12" viewBox="0 0 12 12"><defs><path id="cydja" d="M1266.38 6650.03v4.14h-2.4v-3.86c0-.97-.35-1.64-1.22-1.64-.66 0-1.06.45-1.23.88-.07.16-.08.37-.08.59v4.03h-2.4s.03-6.54 0-7.22h2.4v1.02c.32-.49.89-1.19 2.16-1.19 1.58 0 2.77 1.03 2.77 3.25zm-4.93-2.06l-.02.03h.02z"/><path id="cydjb" d="M1255.31 6654.17v-7.22h2.4v7.22z"/><path id="cydjc" d="M1256.53 6643.47c-.82 0-1.36.54-1.36 1.25 0 .7.52 1.25 1.33 1.25h.01c.84 0 1.36-.56 1.36-1.25-.02-.71-.52-1.25-1.34-1.25z"/></defs><g><g transform="translate(-1255 -6643)"><use xlink:href="#cydja"/></g><g transform="translate(-1255 -6643)"><use xlink:href="#cydjb"/></g><g transform="translate(-1255 -6643)"><use xlink:href="#cydjc"/></g></g></svg>