<svg xmlns="http://www.w3.org/2000/svg" xmlns:xlink="http://www.w3.org/1999/xlink" width="18" height="25" viewBox="0 0 18 25"><defs><path id="77sga" d="M78.98 323.33c-.01.89-.6 1.38-1.5 1.38h-9.3a.36.36 0 0 1-.37-.36c0-.2.16-.36.36-.36h6.75v-3.42c0-.2.16-.36.36-.36.2 0 .37.16.37.36V324h1.83c.5 0 .76-.17.77-.66 0-.25 0-.06-1.08-5.49-.23-1.14-1.3-1.32-1.36-1.35l-2.14-.53-2.25 2.63c-.75.87-1.9.93-2.7.15-.13-.13.01.02-2.38-2.78l-2.16.53-.25.07a1.7 1.7 0 0 0-1.1 1.28c-1.1 5.48-1.08 5.24-1.08 5.49 0 .5.29.66.77.66h1.84v-3.42c0-.2.17-.36.37-.36.2 0 .36.16.36.36V324h1.38c.2 0 .36.16.36.36 0 .2-.16.36-.36.36h-3.95c-1.14 0-1.61-.75-1.48-1.69l1.07-5.32a2.4 2.4 0 0 1 1.6-1.83l.27-.08H64l3.75-.92v-.14h-2.86c-.6 0-1.08-.47-1.08-1.06v-8.14a5.55 5.55 0 0 1 5.55-5.53c1.05 0 2.27.3 3.1.76.2.11.3-.03.87-.03 1.48 0 2.72 1.4 2.87 2.84v.37c0 .2-.16.36-.36.36.03.02-.37 0-.37-.36v-.3c-.1-1.04-1.01-2.19-2.14-2.19-.46 0-.75.2-1.22-.05a6.26 6.26 0 0 0-2.78-.68 4.83 4.83 0 0 0-4.79 4.81v8.14c0 .19.16.34.35.34h2.86v-.3a4.89 4.89 0 0 1-2.58-4.3v-.83c0-.55.47-.99 1.02-.95h.44c3 0 4.75-1.9 5.38-2.74a.62.62 0 0 1 .56-.25c.22.02.41.15.5.35.21.42.53.66.95.72.4.05.71.35.8.72.24.04.46.13.65.24v-1.04c0-.2.16-.36.36-.36.2 0 .37.16.37.36v1.99c.05.2.05.4 0 .61v5.44c0 .59-.48 1.06-1.08 1.06h-2.87v.14l3.76.92s1.55.28 1.88 1.91c1.06 5.42 1.09 5.22 1.09 5.63zm-4.14-14.66c.3-.1.54-.3.63-.54v-.41a.91.91 0 0 0-.63-.54zm-2.59 5.06v.28h2.87c.2 0 .35-.15.35-.34v-4.5c-.19.12-.4.2-.63.24v.07a4.79 4.79 0 0 1-2.59 4.25zm1.86-4.25v-2.84c0-.1-.08-.2-.19-.22a1.87 1.87 0 0 1-1.42-.97 7.35 7.35 0 0 1-6.35 2.9.23.23 0 0 0-.18.06c-.13.12-.05.21-.07 1 0 1.14.47 2.23 1.3 3.02 2.57 2.43 6.91.65 6.91-2.95zm-2.48 7.74h-3.26l.76.9c.51.59 1.22.59 1.73 0zm1.25-1.45l-1.08-.27a.36.36 0 0 1-.26-.23c-.04-.1-.01-.08-.02-1.23-.98.31-2.04.32-3.04-.01v1.12c0 .16-.12.31-.28.35l-1.07.26.62.74h4.5z"/></defs><g><g transform="translate(-61 -300)"><use fill="#4a4a4a" xlink:href="#77sga"/></g></g></svg>