<svg xmlns="http://www.w3.org/2000/svg" xmlns:xlink="http://www.w3.org/1999/xlink" width="250" height="253" viewBox="0 0 250 253"><defs><path id="t7p7a" d="M1044.05 2963.62a12.56 12.56 0 0 1-4.26-11.94 11.95 11.95 0 0 1 8.1-9.16c12.62-4.18 23.8-2.77 32.34 4.06a4.03 4.03 0 0 0 5.12 0c8.55-6.84 19.73-8.25 32.34-4.07a11.95 11.95 0 0 1 8.1 9.17c.85 4.4-.78 8.98-4.26 11.94-3.98 3.36-9.1 13.94-10.73 18.67a12.2 12.2 0 0 1-11.46 8.27h-31.21a12.2 12.2 0 0 1-11.47-8.27c-1.22-3.53-8.1-14.86-12.6-18.67zm5.44-6.41c5.57 4.73 13.36 17.27 15.12 22.34a3.78 3.78 0 0 0 3.52 2.61h31.21a3.78 3.78 0 0 0 3.53-2.6c1.07-3.13 6.8-16.91 13.23-22.35a4.1 4.1 0 0 0 1.44-3.93 3.57 3.57 0 0 0-2.5-2.79c-9.91-3.28-18.13-2.39-24.44 2.65a12.43 12.43 0 0 1-15.62 0 21.04 21.04 0 0 0-13.52-4.58c-3.37 0-7.02.64-10.92 1.93-1.82.6-2.35 2-2.5 2.8a4.08 4.08 0 0 0 1.45 3.92z"/><path id="t7p7b" d="M1119.43 2998.96a4.2 4.2 0 0 0-4.2-4.2 4.1 4.1 0 0 0-2.1.64 4.07 4.07 0 0 0-2.1-.64h-50.4a4.2 4.2 0 0 0 0 8.4h50.4v4.2h-46.2a4.2 4.2 0 0 0 0 8.4h50.09a20.78 20.78 0 0 0 28.2-1.23 4.2 4.2 0 1 0-5.94-5.94c-4.74 4.75-12.97 4.76-17.75.06z"/><path id="t7p7c" d="M1077.43 3049.37c-26.92 0-58.8 34.15-58.8 63a4.2 4.2 0 0 0 8.4 0c0-23.98 28.26-54.6 50.4-54.6a4.2 4.2 0 0 0 0-8.4z"/><path id="t7p7d" d="M1237.04 3089.27v48.3c0 .72-.13 1.42-.33 2.1h.33v23.1c0 10.38-21.8 16.8-42 16.8-9.17 0-18.38-1.31-25.88-3.65a33.59 33.59 0 0 1-28.73 16.26 33.54 33.54 0 0 1-26.18-12.6h-81.74c-1.16 0-2.3-.05-3.45-.12-14.52-.99-25.14-16.14-31.5-28.67-17.48-34.46-7.67-77.15 23.31-101.52l29.73-21.66a36.26 36.26 0 0 1 22.27-7.65h32.66c9.15 0 17.03 4.57 22.04 8.4l30.25 20.57a83.13 83.13 0 0 1 22.53 26.48c5.2-.6 10.36-.85 14.69-.85 15.6 0 42 3.1 42 14.7zm-42.02-6.3a114.7 114.7 0 0 0-19.75 1.63c-.74.13-1.44.28-2.13.42-.56.12-1.17.23-1.69.36-1.13.27-2.16.55-3.1.84l-1.16.38c-.53.18-1.02.35-1.48.53-.38.15-.76.3-1.1.45a15.22 15.22 0 0 0-2.72 1.54l-.14.13c.09.08.15.16.26.25.17.13.36.27.59.41a14.74 14.74 0 0 0 1.94 1c.44.2.96.4 1.5.6.42.17.86.33 1.34.49.62.2 1.32.4 2.03.6l1.72.47c.8.19 1.7.37 2.59.55.67.14 1.32.29 2.05.42 1 .17 2.13.32 3.24.47.76.11 1.47.23 2.29.32 1.32.15 2.78.25 4.23.36.74.06 1.41.14 2.18.18a132.86 132.86 0 0 0 14.63 0c.77-.05 1.44-.12 2.18-.18 1.46-.1 2.91-.2 4.24-.36.8-.1 1.52-.21 2.28-.32 1.11-.15 2.24-.3 3.24-.47.73-.13 1.38-.28 2.05-.42.9-.18 1.8-.36 2.6-.55l1.7-.47c.72-.2 1.42-.4 2.04-.6a43.03 43.03 0 0 0 2.84-1.08 17.69 17.69 0 0 0 1.95-1c.22-.15.42-.29.58-.42.12-.1.2-.19.28-.27-2.35-2.17-13.45-6.27-33.3-6.26zm-32.9 39.83c-.2-.11-.47-.21-.68-.32v9.88l.13.13c.51.41 1 .86 1.48 1.3l.89.8c.55.55 1.07 1.13 1.59 1.71l.54.6c.59.7 1.13 1.41 1.65 2.15l.27.35c.57.82 1.1 1.66 1.6 2.53l.07.12c6.98 2.5 16.12 3.92 25.37 3.92 1.66 0 3.15-.08 4.69-.13 17.12-.85 27.98-6.18 28.96-8.57l-.02-14.8-.68.3a38.54 38.54 0 0 1-5.57 2.29l-1.24.41c-.87.27-1.76.53-2.67.77-.35.1-.69.2-1.04.28-1.26.32-2.56.6-3.89.87l-.9.16c-1.05.2-2.12.38-3.2.54l-1.46.2a87.23 87.23 0 0 1-7.32.7l-1.36.08a98.1 98.1 0 0 1-8.6 0l-1.33-.08a99.86 99.86 0 0 1-7.35-.7l-1.42-.2c-1.1-.16-2.19-.35-3.26-.55l-.85-.15a75.25 75.25 0 0 1-3.9-.87c-.34-.08-.65-.18-.98-.27a65.59 65.59 0 0 1-3.95-1.18 56.1 56.1 0 0 1-2.26-.82c-.39-.16-.78-.3-1.16-.47-.74-.31-1.45-.64-2.14-.98zm-55.2 37.75c-.03-.66-.1-1.3-.1-1.98 0-.15.03-.3.03-.46 0-.36.04-.72.06-1.08.04-1.01.13-2.01.26-3 .03-.23.03-.47.07-.7.03-.18.1-.36.13-.54.25-1.45.56-2.88 1-4.26.1-.31.23-.61.34-.93.37-1.08.8-2.13 1.28-3.16.22-.47.43-.93.67-1.38.6-1.17 1.26-2.3 2-3.38.3-.42.62-.81.92-1.23.57-.75 1.17-1.49 1.8-2.2.37-.4.73-.83 1.12-1.22.89-.91 1.83-1.76 2.82-2.56.43-.35.9-.68 1.34-1.01a32.7 32.7 0 0 1 2.39-1.6c.43-.25.84-.53 1.28-.77a33.3 33.3 0 0 1 3.64-1.7l1.35-.5a32.1 32.1 0 0 1 3.85-1.1c.11-.03.22-.08.33-.1l.08-.02a33.85 33.85 0 0 1 5.49-.63c.45-.02.9-.07 1.36-.07.88 0 1.74.06 2.6.13.18.01.35.01.52.03 1.53.14 3.03.4 4.5.74l.6.16c1.5.37 2.97.84 4.38 1.41v-38.18c0-.79.14-1.53.38-2.24.1-.33.28-.62.42-.94.17-.34.33-.69.55-1.01.26-.4.58-.77.91-1.13a13.7 13.7 0 0 1 2-1.78l.29-.2c3.53-2.45 8.67-4.12 13.99-5.22a74.32 74.32 0 0 0-18.67-21l-30.25-20.56c-4.17-3.19-10.33-6.82-17.12-6.82h-32.67c-6.2 0-12.31 2.11-17.2 5.95l-29.72 21.66c-27.72 21.8-36.56 60.12-20.9 91.01 7.6 14.98 16.33 23.53 24.58 24.1.96.06 1.92.09 2.9.09h76.26c-1.1-3.35-1.69-7-1.85-10.62zm56.44 8.45c.36-.8.68-1.6.96-2.41l.04-.1c.26-.78.47-1.57.65-2.37l.06-.25c.17-.74.28-1.5.37-2.26.02-.13.05-.25.06-.38a25.5 25.5 0 0 0 .01-5.25c0-.07-.02-.13-.03-.2a25.8 25.8 0 0 0-.37-2.34l-.04-.18a24.6 24.6 0 0 0-.61-2.31c-.02-.06-.05-.11-.06-.17a26.08 26.08 0 0 0-1.46-3.5 25.13 25.13 0 0 0-3.41-5.12l-.18-.2a25.68 25.68 0 0 0-1.83-1.87l-.46-.41c-.64-.57-1.31-1.1-2-1.6l-.43-.32-.17-.11c-1.03-.7-2.14-1.3-3.27-1.83a25.43 25.43 0 0 0-3.8-1.44l-.05-.02a24.7 24.7 0 0 0-3.8-.77l-.21-.04a25.13 25.13 0 0 0-3.7-.14c-.23 0-.46.02-.69.04-1.21.07-2.43.2-3.65.45l-.4.1c-.97.22-1.92.5-2.85.84l-.82.3c-1.05.42-2.09.89-3.07 1.45-.02 0-.03.02-.05.03a25.9 25.9 0 0 0-11.57 14.04c-.04.1-.1.21-.12.32a24.4 24.4 0 0 0-.95 4.38c-.04.38-.09.76-.12 1.15a25 25 0 0 0-.09 2.36 25.22 25.22 0 0 0 25.18 24.9 25.25 25.25 0 0 0 22.93-14.77zm65.32-6.53l-.02-13.39c-9.07 4-23.58 5.29-33.62 5.29-7.77 0-15.17-.63-21.54-1.8.1.53.15 1.08.22 1.62.05.38.12.75.15 1.14.1 1.07.17 2.15.17 3.24 0 1.5-.14 2.95-.33 4.4l-.15 1.02a33.7 33.7 0 0 1-.94 4.19v.02a82.39 82.39 0 0 0 22.42 2.97c19.82 0 32.57-6.1 33.64-8.7zm0-50.41l-.02-13.4c-.12.06-.25.1-.37.15-.99.42-2.03.82-3.12 1.18l-.17.06a55.8 55.8 0 0 1-3.65 1.03l-1.22.29c-.9.2-1.82.4-2.75.58l-1.35.25c-1.02.18-2.04.35-3.07.5l-1 .14c-1.35.18-2.7.34-4.06.47l-1 .1a115.44 115.44 0 0 1-7.15.45l-1.15.04a131.92 131.92 0 0 1-7.13 0l-1.14-.04a131.56 131.56 0 0 1-7.14-.45l-1.02-.1c-1.35-.12-2.7-.28-4.06-.46l-.98-.15a102.52 102.52 0 0 1-4.43-.74c-.93-.18-1.83-.38-2.73-.58l-1.23-.29a54.5 54.5 0 0 1-3.76-1.06 40.28 40.28 0 0 1-3.17-1.2l-.34-.14-.01 13.7c1.1 2.32 13.82 8.38 33.58 8.38 19.82 0 32.57-6.1 33.65-8.71z"/></defs><g><g transform="translate(-988 -2940)"><use fill="#473bf0" xlink:href="#t7p7a"/></g><g transform="translate(-988 -2940)"><use fill="#3f46ad" xlink:href="#t7p7b"/></g><g transform="translate(-988 -2940)"><use fill="#3f46ad" xlink:href="#t7p7c"/></g><g transform="translate(-988 -2940)"><use fill="#473bf0" xlink:href="#t7p7d"/></g></g></svg>