<svg xmlns="http://www.w3.org/2000/svg" xmlns:xlink="http://www.w3.org/1999/xlink" width="246" height="278" viewBox="0 0 246 278"><defs><path id="5i1wa" d="M1207.22 2199.24v.46c-.46.47-.46.93-.93 1.4l-46.3 46.29a4.2 4.2 0 0 1-3.23 1.39H994.72c-2.78 0-4.63-1.85-4.63-4.63v-74.08h9.26v69.45h152.78v-41.67c0-2.78 1.85-4.63 4.63-4.63h41.66v-212.96H999.35v60.18h-9.26v-64.81c0-2.78 1.85-4.63 4.63-4.63h208.33c2.78 0 4.63 1.85 4.63 4.63v222.22c0 .46 0 .93-.46 1.4zm-45.83 3.24v30.56l15.27-15.28 15.28-15.28z"/><path id="5i1wb" d="M966.94 2146.92c-2.78 0-4.63-1.85-4.63-4.63v-37.03c0-2.78 1.85-4.63 4.63-4.63h23.15v-18.52c0-2.78 1.85-4.63 4.63-4.63h23.15v-27.78c0-2.78 1.85-4.63 4.63-4.63h27.77c2.78 0 4.63 1.85 4.63 4.63v87.96h13.9v9.26zm60.18-9.26h18.52v-83.33h-18.52zm-27.77 0h18.52v-50.92h-18.52zm-27.78 0h18.52v-27.78h-18.52z"/><path id="5i1wc" d="M1175.28 2086.74h-97.22c-2.78 0-4.63-1.85-4.63-4.63v-78.7c0-2.78 1.85-4.63 4.63-4.63h97.22c2.78 0 4.63 1.85 4.63 4.63v78.7c0 2.78-1.85 4.63-4.63 4.63zm-4.63-78.7h-55.55v18.52h55.55zm-87.96 0v18.52h23.15v-18.52zm0 69.44h23.15v-41.66h-23.15v41.66zm87.96 0v-41.66h-55.55v41.66z"/><path id="5i1wd" d="M1078.06 2109.89v-9.26h97.22v9.26z"/><path id="5i1we" d="M1078.06 2133.04v-9.26h97.22v9.26z"/><path id="5i1wf" d="M1078.06 2156.19v-9.26h97.22v9.26z"/><path id="5i1wg" d="M1013.24 2008.04v-9.26h27.78v9.26z"/><path id="5i1wh" d="M1013.24 2031.19v-9.26h41.67v9.26z"/><path id="5i1wi" d="M1013.24 2179.33v-9.26h32.41v9.26z"/><path id="5i1wj" d="M1059.54 2179.33v-9.26h32.41v9.26z"/><path id="5i1wk" d="M1105.83 2179.33v-9.26h32.41v9.26z"/><path id="5i1wl" d="M1013.24 2202.48v-9.26h32.41v9.26z"/><path id="5i1wm" d="M1059.54 2202.48v-9.26h32.41v9.26z"/><path id="5i1wn" d="M1105.83 2202.48v-9.26h32.41v9.26z"/><path id="5i1wo" d="M1013.24 2225.63v-9.26h32.41v9.26z"/><path id="5i1wp" d="M1059.54 2225.63v-9.26h32.41v9.26z"/><path id="5i1wq" d="M1105.83 2225.63v-9.26h32.41v9.26z"/></defs><g><g transform="translate(-962 -1971)"><use fill="#473bf0" xlink:href="#5i1wa"/></g><g transform="translate(-962 -1971)"><use fill="#3f46ad" xlink:href="#5i1wb"/></g><g transform="translate(-962 -1971)"><use fill="#3f46ad" xlink:href="#5i1wc"/></g><g transform="translate(-962 -1971)"><use fill="#3f46ad" xlink:href="#5i1wd"/></g><g transform="translate(-962 -1971)"><use fill="#3f46ad" xlink:href="#5i1we"/></g><g transform="translate(-962 -1971)"><use fill="#3f46ad" xlink:href="#5i1wf"/></g><g transform="translate(-962 -1971)"><use fill="#473bf0" xlink:href="#5i1wg"/></g><g transform="translate(-962 -1971)"><use fill="#473bf0" xlink:href="#5i1wh"/></g><g transform="translate(-962 -1971)"><use fill="#473bf0" xlink:href="#5i1wi"/></g><g transform="translate(-962 -1971)"><use fill="#473bf0" xlink:href="#5i1wj"/></g><g transform="translate(-962 -1971)"><use fill="#473bf0" xlink:href="#5i1wk"/></g><g transform="translate(-962 -1971)"><use fill="#473bf0" xlink:href="#5i1wl"/></g><g transform="translate(-962 -1971)"><use fill="#473bf0" xlink:href="#5i1wm"/></g><g transform="translate(-962 -1971)"><use fill="#473bf0" xlink:href="#5i1wn"/></g><g transform="translate(-962 -1971)"><use fill="#473bf0" xlink:href="#5i1wo"/></g><g transform="translate(-962 -1971)"><use fill="#473bf0" xlink:href="#5i1wp"/></g><g transform="translate(-962 -1971)"><use fill="#473bf0" xlink:href="#5i1wq"/></g></g></svg>