<svg xmlns="http://www.w3.org/2000/svg" xmlns:xlink="http://www.w3.org/1999/xlink" width="20" height="20" viewBox="0 0 20 20"><defs><path id="zd15a" d="M74.28 429.37l-.06.98a1.2 1.2 0 1 1-2.4 0l-.07-.98a1.27 1.27 0 0 1 1.27-1.35 1.27 1.27 0 0 1 1.26 1.35zm-.92-.4a.47.47 0 0 0-.34-.15.47.47 0 0 0-.35.14.47.47 0 0 0-.12.36l.06.97c0 .14.08.26.18.33.14.1.31.1.45 0 .1-.07.17-.19.18-.33l.07-.97a.47.47 0 0 0-.13-.36z"/><path id="zd15b" d="M76.08 434.14a.4.4 0 0 1-.3.14h-5.51a.4.4 0 0 1-.4-.46l.12-.61a1.99 1.99 0 0 1 1.94-1.63h.34c.1 0 .2.04.28.12a.66.66 0 0 0 .94 0 .4.4 0 0 1 .29-.12h.33a1.99 1.99 0 0 1 1.95 1.63l.1.6a.4.4 0 0 1-.08.33zm-.78-.65l-.03-.14a1.19 1.19 0 0 0-1.16-.97h-.18a1.45 1.45 0 0 1-1.81 0h-.19a1.19 1.19 0 0 0-1.16.97l-.03.14z"/><path id="zd15c" d="M74.28 443.03l-.06.98a1.2 1.2 0 1 1-2.4 0l-.07-.98a1.27 1.27 0 0 1 1.27-1.35 1.27 1.27 0 0 1 1.26 1.35zm-.92-.4a.47.47 0 0 0-.34-.15.47.47 0 0 0-.35.14.47.47 0 0 0-.12.36l.06.97c0 .14.08.26.18.33.14.1.31.1.45 0 .1-.07.17-.19.18-.33l.07-.97a.47.47 0 0 0-.13-.36z"/><path id="zd15d" d="M76.08 447.8a.4.4 0 0 1-.3.14h-5.51a.4.4 0 0 1-.4-.46l.12-.61a1.99 1.99 0 0 1 1.94-1.63h.34c.1 0 .2.04.28.12.26.26.68.26.94 0a.4.4 0 0 1 .29-.12h.33a1.99 1.99 0 0 1 1.95 1.63l.1.6a.4.4 0 0 1-.08.33zm-.78-.65l-.03-.14a1.19 1.19 0 0 0-1.16-.97h-.18c-.53.41-1.28.41-1.81 0h-.19a1.2 1.2 0 0 0-1.16.97l-.03.14z"/><path id="zd15e" d="M67.45 436.2l-.06.98a1.2 1.2 0 1 1-2.4 0l-.07-.98a1.27 1.27 0 0 1 1.27-1.35 1.27 1.27 0 0 1 1.26 1.35zm-.92-.4a.47.47 0 0 0-.34-.15.47.47 0 0 0-.35.14.47.47 0 0 0-.12.36l.06.97c0 .14.08.26.18.33.14.1.31.1.45 0 .1-.07.17-.19.18-.33l.07-.97a.47.47 0 0 0-.13-.36z"/><path id="zd15f" d="M69.25 440.97a.4.4 0 0 1-.3.14h-5.51a.4.4 0 0 1-.4-.46l.12-.61a1.99 1.99 0 0 1 1.94-1.63h.34c.1 0 .2.04.28.12.26.26.68.26.94 0a.4.4 0 0 1 .29-.12h.33a1.99 1.99 0 0 1 1.95 1.63l.1.6a.4.4 0 0 1-.08.33zm-.78-.65l-.03-.14a1.19 1.19 0 0 0-1.16-.97h-.18a1.45 1.45 0 0 1-1.81 0h-.19a1.19 1.19 0 0 0-1.16.97l-.03.14z"/><path id="zd15g" d="M81.11 436.2l-.06.98a1.2 1.2 0 1 1-2.4 0l-.07-.98a1.27 1.27 0 0 1 1.27-1.35 1.27 1.27 0 0 1 1.26 1.35zm-.92-.4a.47.47 0 0 0-.34-.15.47.47 0 0 0-.35.14.47.47 0 0 0-.12.36l.06.97c0 .14.08.26.18.33.14.1.31.1.45 0 .1-.07.17-.19.18-.33l.07-.97a.47.47 0 0 0-.13-.36z"/><path id="zd15h" d="M82.91 440.97a.4.4 0 0 1-.3.14H77.1a.4.4 0 0 1-.4-.46l.12-.61a1.99 1.99 0 0 1 1.94-1.63h.34c.1 0 .2.04.28.12.26.26.68.26.94 0a.4.4 0 0 1 .29-.12h.33a1.99 1.99 0 0 1 1.95 1.63l.1.6a.4.4 0 0 1-.08.33zm-.78-.65l-.03-.14a1.19 1.19 0 0 0-1.16-.97h-.18a1.45 1.45 0 0 1-1.81 0h-.19a1.19 1.19 0 0 0-1.16.97l-.03.14z"/><path id="zd15i" d="M70.96 430.58a.4.4 0 0 0-.5-.25 8.09 8.09 0 0 0-3.96 2.93.4.4 0 0 0 .65.47 7.29 7.29 0 0 1 3.56-2.65.4.4 0 0 0 .25-.5z"/><path id="zd15j" d="M79.55 433.27a8.1 8.1 0 0 0-2.6-2.34.4.4 0 0 0-.4.7 7.3 7.3 0 0 1 2.36 2.1.4.4 0 1 0 .64-.46z"/><path id="zd15k" d="M75.81 430.4a8.01 8.01 0 0 0-.2-.07.4.4 0 1 0-.26.75 7 7 0 0 1 .18.07.4.4 0 1 0 .28-.75z"/><path id="zd15l" d="M70.7 444.46a7.28 7.28 0 0 1-3.55-2.64.4.4 0 0 0-.65.46 8.09 8.09 0 0 0 4.08 2.95.4.4 0 0 0 .13-.77z"/><path id="zd15m" d="M79.46 441.72a.4.4 0 0 0-.55.1 7.28 7.28 0 0 1-3.56 2.64.4.4 0 1 0 .26.75 7.98 7.98 0 0 0 3.95-2.93.4.4 0 0 0-.1-.56z"/></defs><g><g transform="translate(-63 -428)"><use fill="#4a4a4a" xlink:href="#zd15a"/></g><g transform="translate(-63 -428)"><use fill="#4a4a4a" xlink:href="#zd15b"/></g><g transform="translate(-63 -428)"><use fill="#4a4a4a" xlink:href="#zd15c"/></g><g transform="translate(-63 -428)"><use fill="#4a4a4a" xlink:href="#zd15d"/></g><g transform="translate(-63 -428)"><use fill="#4a4a4a" xlink:href="#zd15e"/></g><g transform="translate(-63 -428)"><use fill="#4a4a4a" xlink:href="#zd15f"/></g><g transform="translate(-63 -428)"><use fill="#4a4a4a" xlink:href="#zd15g"/></g><g transform="translate(-63 -428)"><use fill="#4a4a4a" xlink:href="#zd15h"/></g><g transform="translate(-63 -428)"><use fill="#4a4a4a" xlink:href="#zd15i"/></g><g transform="translate(-63 -428)"><use fill="#4a4a4a" xlink:href="#zd15j"/></g><g transform="translate(-63 -428)"><use fill="#4a4a4a" xlink:href="#zd15k"/></g><g transform="translate(-63 -428)"><use fill="#4a4a4a" xlink:href="#zd15l"/></g><g transform="translate(-63 -428)"><use fill="#4a4a4a" xlink:href="#zd15m"/></g></g></svg>