<svg xmlns="http://www.w3.org/2000/svg" xmlns:xlink="http://www.w3.org/1999/xlink" width="250" height="268" viewBox="0 0 250 268"><defs><path id="kuhea" d="M509 2479.3v240.91c0 2.47-2 4.47-4.46 4.47H263.46c-2.46 0-4.46-2-4.46-4.47v-240.9c0-2.47 2-4.46 4.46-4.46h31.25v-13.39c0-2.47 2-4.46 4.47-4.46h31.25c2.47 0 4.46 2 4.46 4.46v13.39h98.22v-13.39c0-2.47 2-4.46 4.46-4.46h31.25c2.47 0 4.47 2 4.47 4.46v13.39h31.25c2.46 0 4.46 1.99 4.46 4.46zm-66.96 13.39h22.32v-26.77h-22.32zm-138.4 0h22.32v-26.77h-22.32zm-35.71 31.23h232.14v-40.15H473.3v13.38c0 2.47-2 4.46-4.47 4.46h-31.25c-2.47 0-4.46-2-4.46-4.46v-13.38h-98.22v13.38c0 2.47-2 4.46-4.46 4.46h-31.25c-2.47 0-4.47-2-4.47-4.46v-13.38h-26.78zm232.14 191.83v-182.9H267.93v182.9z"/><path id="kuheb" d="M468.82 2559.61v129.38H299.18V2559.6zm-80.35 40.15h31.25v-31.23h-31.25zm31.25 8.92h-31.25v31.23h31.25zm-71.43 31.23h31.25v-31.23h-31.25zm0-40.15h31.25v-31.23h-31.25zm-40.18 0h31.25v-31.23H308.1zm0 40.15h31.25v-31.23H308.1zm31.25 8.93H308.1v31.22h31.25zm40.18 0h-31.25v31.22h31.25zm40.18 0h-31.25v31.22h31.25zm40.17 0h-31.25v31.22h31.25zm0-40.16h-31.25v31.23h31.25zm-31.25-40.15v31.23h31.25v-31.23z"/></defs><g><g transform="translate(-259 -2457)"><use fill="#473bf0" xlink:href="#kuhea"/></g><g transform="translate(-259 -2457)"><use fill="#3f46ad" xlink:href="#kuheb"/></g></g></svg>