<svg xmlns="http://www.w3.org/2000/svg" xmlns:xlink="http://www.w3.org/1999/xlink" width="250" height="250" viewBox="0 0 250 250"><defs><path id="aycva" d="M261 1701c0-69.04 55.96-125 125-125 69.04 0 125 55.96 125 125 0 69.04-55.96 125-125 125-69.04 0-125-55.96-125-125z"/><path id="aycvb" d="M274 1700.5c0-61.58 49.92-111.5 111.5-111.5S497 1638.92 497 1700.5 447.08 1812 385.5 1812 274 1762.08 274 1700.5z"/><path id="aycvc" d="M283 1701.5c0-57.16 46.34-103.5 103.5-103.5S490 1644.34 490 1701.5 443.66 1805 386.5 1805 283 1758.66 283 1701.5z"/><path id="aycvd" d="M338.32 1753a4.32 4.32 0 0 1-3.06-7.38l58.36-58.35a4.32 4.32 0 1 1 6.11 6.1l-58.35 58.36a4.31 4.31 0 0 1-3.06 1.27z"/><path id="aycve" d="M386 1627.9a4.3 4.3 0 0 1-4.3-4.3v-12.9a4.3 4.3 0 0 1 8.6 0v12.9a4.3 4.3 0 0 1-4.3 4.3z"/><path id="aycvf" d="M386 1795.61a4.3 4.3 0 0 1-4.3-4.3v-12.9a4.3 4.3 0 0 1 8.6 0v12.9a4.3 4.3 0 0 1-4.3 4.3z"/><path id="aycvg" d="M459.11 1701a4.3 4.3 0 0 1 4.3-4.3h12.9a4.3 4.3 0 0 1 0 8.6h-12.9a4.3 4.3 0 0 1-4.3-4.3z"/><path id="aycvh" d="M291.39 1701a4.3 4.3 0 0 1 4.3-4.3h12.9a4.3 4.3 0 0 1 0 8.6h-12.9a4.3 4.3 0 0 1-4.3-4.3z"/><path id="aycvi" d="M468.78 1748.94a4.33 4.33 0 0 1-5.9 1.58l-3.76-2.16a4.33 4.33 0 0 1 4.33-7.5l3.75 2.16a4.33 4.33 0 0 1 1.58 5.92z"/><path id="aycvj" d="M315.13 1660.22a4.33 4.33 0 0 1-5.9 1.59l-3.76-2.17a4.33 4.33 0 0 1 4.33-7.5l3.75 2.17a4.33 4.33 0 0 1 1.58 5.91z"/><path id="aycvk" d="M303.9 1748.94a4.33 4.33 0 0 0 5.9 1.58l3.75-2.16a4.33 4.33 0 0 0-4.33-7.5l-3.75 2.16a4.33 4.33 0 0 0-1.58 5.92z"/><path id="aycvl" d="M457.54 1660.22a4.33 4.33 0 0 0 5.91 1.59l3.75-2.17a4.33 4.33 0 0 0-4.33-7.5l-3.75 2.17a4.33 4.33 0 0 0-1.58 5.91z"/><path id="aycvm" d="M338.73 1783.78a4.33 4.33 0 0 1-1.58-5.9l2.16-3.76a4.33 4.33 0 0 1 7.5 4.33l-2.17 3.75a4.33 4.33 0 0 1-5.9 1.58z"/><path id="aycvn" d="M427.44 1630.13a4.33 4.33 0 0 1-1.58-5.9l2.16-3.76a4.33 4.33 0 0 1 7.5 4.33l-2.16 3.75a4.33 4.33 0 0 1-5.92 1.58z"/><path id="aycvo" d="M338.73 1618.9a4.33 4.33 0 0 0-1.58 5.9l2.16 3.75a4.33 4.33 0 0 0 7.5-4.33l-2.17-3.75a4.33 4.33 0 0 0-5.9-1.58z"/><path id="aycvp" d="M427.44 1772.54a4.33 4.33 0 0 0-1.58 5.91l2.16 3.75a4.33 4.33 0 0 0 7.5-4.33l-2.16-3.75a4.33 4.33 0 0 0-5.92-1.58z"/><path id="aycvq" d="M446.68 1695.53h-56.1v-47.24a4.3 4.3 0 0 0-4.32-4.29 4.3 4.3 0 0 0-4.31 4.3v47.23h-8.63a4.3 4.3 0 0 0-4.32 4.3 4.3 4.3 0 0 0 4.32 4.29h8.63v8.59a4.3 4.3 0 0 0 4.31 4.29 4.3 4.3 0 0 0 4.32-4.3v-8.58h56.1a4.3 4.3 0 0 0 4.32-4.3 4.3 4.3 0 0 0-4.32-4.3z"/><path id="aycvr" d="M378 1701.5a8.5 8.5 0 1 1 17 0 8.5 8.5 0 0 1-17 0z"/></defs><g><g transform="translate(-261 -1576)"><use fill="#3f46ad" fill-opacity=".56" xlink:href="#aycva"/></g><g transform="translate(-261 -1576)"><use fill="#473bf0" xlink:href="#aycvb"/></g><g transform="translate(-261 -1576)"><use fill="#fff" xlink:href="#aycvc"/></g><g transform="translate(-261 -1576)"><use fill="#afb9d2" xlink:href="#aycvd"/></g><g transform="translate(-261 -1576)"><use fill="#5b5d6e" xlink:href="#aycve"/></g><g transform="translate(-261 -1576)"><use fill="#5b5d6e" xlink:href="#aycvf"/></g><g transform="translate(-261 -1576)"><use fill="#5b5d6e" xlink:href="#aycvg"/></g><g transform="translate(-261 -1576)"><use fill="#5b5d6e" xlink:href="#aycvh"/></g><g transform="translate(-261 -1576)"><use fill="#8f96ac" xlink:href="#aycvi"/></g><g transform="translate(-261 -1576)"><use fill="#8f96ac" xlink:href="#aycvj"/></g><g transform="translate(-261 -1576)"><use fill="#8f96ac" xlink:href="#aycvk"/></g><g transform="translate(-261 -1576)"><use fill="#8f96ac" xlink:href="#aycvl"/></g><g transform="translate(-261 -1576)"><use fill="#8f96ac" xlink:href="#aycvm"/></g><g transform="translate(-261 -1576)"><use fill="#8f96ac" xlink:href="#aycvn"/></g><g transform="translate(-261 -1576)"><use fill="#8f96ac" xlink:href="#aycvo"/></g><g transform="translate(-261 -1576)"><use fill="#8f96ac" xlink:href="#aycvp"/></g><g transform="translate(-261 -1576)"><use fill="#5b5d6e" xlink:href="#aycvq"/></g><g transform="translate(-261 -1576)"><use fill="#c7cfe2" xlink:href="#aycvr"/></g></g></svg>