<svg width="30px" height="30px" viewBox="0 0 30 30" xmlns="http://www.w3.org/2000/svg">
  <g stroke="none" stroke-width="1" fill="none" fill-rule="evenodd">
    <g fill="#5C91CC">
      <path d="M4.75809868e-16,15 C-1.0705722e-15,6.71572875 6.71572875,1.4274296e-15 15,0 C23.2842712,-1.4274296e-15 30,6.71572875 30,15 C30,23.2842712 23.2842712,30 15,30 C11.0217527,30 7.20644396,28.4196474 4.39339828,25.6066017 C1.58035261,22.793556 4.75809868e-16,18.9782473 0,15 L4.75809868e-16,15 Z M14.625,11.9464286 L14.625,12.4607143 L14.1,12.3964286 C12.213014,12.1541426 10.4602591,11.2909579 9.11785714,9.94285714 L8.45357143,9.25714286 L8.27142857,9.76071429 C7.89821436,10.8341946 8.1497855,12.0260644 8.925,12.8571429 C9.34285714,13.3071429 9.24642857,13.3607143 8.52857143,13.1035714 C8.37422617,13.0305616 8.20639141,12.9904272 8.03571429,12.9857143 C8.06800728,13.4769693 8.19536323,13.9572831 8.41071429,14.4 C8.74316316,14.986377 9.24307482,15.4601739 9.84642857,15.7607143 L10.3607143,16.0714286 L9.76071429,16.0714286 C9.17142857,16.0714286 9.15,16.0714286 9.21428571,16.3071429 C9.5918757,17.1377817 10.3046959,17.7688028 11.175,18.0428571 L11.7857143,18.2142857 L11.2178571,18.5571429 C10.3623779,19.0487537 9.3971521,19.3176906 8.41071429,19.3392857 C8.12240191,19.327781 7.83389649,19.3566315 7.55357143,19.425 C8.20148722,19.8346874 8.90518078,20.148643 9.64285714,20.3571429 C11.9434072,21.0394431 14.4224922,20.7571136 16.5107143,19.575 C18.0599784,18.5834239 19.276583,17.1503682 20.0035714,15.4607143 C20.4000322,14.4310775 20.638444,13.3473873 20.7107143,12.2464286 C20.6836963,11.780185 20.9249088,11.3393483 21.3321429,11.1107143 C21.5961107,10.8589402 21.8397291,10.5866608 22.0607143,10.2964286 C22.1678571,10.0928571 22.1571429,10.0928571 21.6214286,10.2964286 C20.7321429,10.6178571 20.6035714,10.575 21.0428571,10.0928571 C21.358791,9.77055532 21.6001782,9.38287293 21.75,8.95714286 C21.6295881,8.9602081 21.5132698,9.00148233 21.4178571,9.075 C21.1215898,9.22231473 20.8133375,9.34418191 20.4964286,9.43928571 L19.9071429,9.64285714 L19.3928571,9.32142857 C19.1154533,9.13362923 18.8169872,8.97900222 18.5035714,8.86071429 C17.903204,8.70173006 17.271796,8.70173006 16.6714286,8.86071429 C15.3675616,9.30503351 14.527036,10.5724228 14.625,11.9464286 L14.625,11.9464286 Z"></path>
    </g>
  </g>
</svg>
